<mxfile host="65bd71144e">
    <diagram id="JkzNbfAQpRrgms4FYXLM" name="Page-1">
        <mxGraphModel dx="453" dy="478" grid="1" gridSize="10" guides="1" tooltips="1" connect="1" arrows="1" fold="1" page="1" pageScale="1" pageWidth="827" pageHeight="1169" math="0" shadow="0">
            <root>
                <mxCell id="0"/>
                <mxCell id="1" parent="0"/>
                <mxCell id="3" value="&lt;table class=&quot;highlight tab-size js-file-line-container js-code-nav-container js-tagsearch-file&quot; style=&quot;box-sizing: border-box; border-spacing: 0px; border-collapse: collapse; color: rgb(201, 209, 217); font-size: 14px; font-style: normal; font-weight: 400; letter-spacing: normal; text-transform: none; word-spacing: 0px; background-color: rgb(13, 17, 23);&quot;&gt;&lt;tbody style=&quot;box-sizing: border-box&quot;&gt;&lt;tr style=&quot;box-sizing: border-box&quot;&gt;&lt;td id=&quot;LC1&quot; class=&quot;blob-code blob-code-inner js-file-line&quot; style=&quot;box-sizing: border-box; padding: 0px 10px; position: relative; line-height: 20px; vertical-align: top; display: table-cell; overflow: visible; font-size: 12px;&quot;&gt;&amp;lt;mxfile host=&quot;65bd71144e&quot;&amp;gt;&lt;/td&gt;&lt;/tr&gt;&lt;tr style=&quot;box-sizing: border-box ; background-color: transparent&quot;&gt;&lt;td id=&quot;L2&quot; class=&quot;blob-num js-line-number js-code-nav-line-number js-blob-rnum&quot; style=&quot;box-sizing: border-box; padding: 0px 10px; position: relative; width: 50px; min-width: 50px; font-size: 12px; line-height: 20px; text-align: right; vertical-align: top; cursor: pointer;&quot;&gt;&lt;/td&gt;&lt;td id=&quot;LC2&quot; class=&quot;blob-code blob-code-inner js-file-line&quot; style=&quot;box-sizing: border-box; padding: 0px 10px; position: relative; line-height: 20px; vertical-align: top; display: table-cell; overflow: visible; font-size: 12px;&quot;&gt;    &amp;lt;diagram id=&quot;1qiL-lk-seEyFMPcNWil&quot; name=&quot;Page-1&quot;&amp;gt;&lt;/td&gt;&lt;/tr&gt;&lt;tr style=&quot;box-sizing: border-box&quot;&gt;&lt;td id=&quot;L3&quot; class=&quot;blob-num js-line-number js-code-nav-line-number js-blob-rnum&quot; style=&quot;box-sizing: border-box; padding: 0px 10px; position: relative; width: 50px; min-width: 50px; font-size: 12px; line-height: 20px; text-align: right; vertical-align: top; cursor: pointer;&quot;&gt;&lt;/td&gt;&lt;td id=&quot;LC3&quot; class=&quot;blob-code blob-code-inner js-file-line&quot; style=&quot;box-sizing: border-box; padding: 0px 10px; position: relative; line-height: 20px; vertical-align: top; display: table-cell; overflow: visible; font-size: 12px;&quot;&gt;        &amp;lt;mxGraphModel dx=&quot;675&quot; dy=&quot;420&quot; grid=&quot;1&quot; gridSize=&quot;10&quot; guides=&quot;1&quot; tooltips=&quot;1&quot; connect=&quot;1&quot; arrows=&quot;1&quot; fold=&quot;1&quot; page=&quot;1&quot; pageScale=&quot;1&quot; pageWidth=&quot;827&quot; pageHeight=&quot;1169&quot; math=&quot;0&quot; shadow=&quot;0&quot;&amp;gt;&lt;/td&gt;&lt;/tr&gt;&lt;tr style=&quot;box-sizing: border-box ; background-color: transparent&quot;&gt;&lt;td id=&quot;L4&quot; class=&quot;blob-num js-line-number js-code-nav-line-number js-blob-rnum&quot; style=&quot;box-sizing: border-box; padding: 0px 10px; position: relative; width: 50px; min-width: 50px; font-size: 12px; line-height: 20px; text-align: right; vertical-align: top; cursor: pointer;&quot;&gt;&lt;/td&gt;&lt;td id=&quot;LC4&quot; class=&quot;blob-code blob-code-inner js-file-line&quot; style=&quot;box-sizing: border-box; padding: 0px 10px; position: relative; line-height: 20px; vertical-align: top; display: table-cell; overflow: visible; font-size: 12px;&quot;&gt;            &amp;lt;root&amp;gt;&lt;/td&gt;&lt;/tr&gt;&lt;tr style=&quot;box-sizing: border-box&quot;&gt;&lt;td id=&quot;L5&quot; class=&quot;blob-num js-line-number js-code-nav-line-number js-blob-rnum&quot; style=&quot;box-sizing: border-box; padding: 0px 10px; position: relative; width: 50px; min-width: 50px; font-size: 12px; line-height: 20px; text-align: right; vertical-align: top; cursor: pointer;&quot;&gt;&lt;/td&gt;&lt;td id=&quot;LC5&quot; class=&quot;blob-code blob-code-inner js-file-line&quot; style=&quot;box-sizing: border-box; padding: 0px 10px; position: relative; line-height: 20px; vertical-align: top; display: table-cell; overflow: visible; font-size: 12px;&quot;&gt;                &amp;lt;mxCell id=&quot;0&quot;/&amp;gt;&lt;/td&gt;&lt;/tr&gt;&lt;tr style=&quot;box-sizing: border-box ; background-color: transparent&quot;&gt;&lt;td id=&quot;L6&quot; class=&quot;blob-num js-line-number js-code-nav-line-number js-blob-rnum&quot; style=&quot;box-sizing: border-box; padding: 0px 10px; position: relative; width: 50px; min-width: 50px; font-size: 12px; line-height: 20px; text-align: right; vertical-align: top; cursor: pointer;&quot;&gt;&lt;/td&gt;&lt;td id=&quot;LC6&quot; class=&quot;blob-code blob-code-inner js-file-line&quot; style=&quot;box-sizing: border-box; padding: 0px 10px; position: relative; line-height: 20px; vertical-align: top; display: table-cell; overflow: visible; font-size: 12px;&quot;&gt;                &amp;lt;mxCell id=&quot;1&quot; parent=&quot;0&quot;/&amp;gt;&lt;/td&gt;&lt;/tr&gt;&lt;tr style=&quot;box-sizing: border-box&quot;&gt;&lt;td id=&quot;L7&quot; class=&quot;blob-num js-line-number js-code-nav-line-number js-blob-rnum&quot; style=&quot;box-sizing: border-box; padding: 0px 10px; position: relative; width: 50px; min-width: 50px; font-size: 12px; line-height: 20px; text-align: right; vertical-align: top; cursor: pointer;&quot;&gt;&lt;/td&gt;&lt;td id=&quot;LC7&quot; class=&quot;blob-code blob-code-inner js-file-line&quot; style=&quot;box-sizing: border-box; padding: 0px 10px; position: relative; line-height: 20px; vertical-align: top; display: table-cell; overflow: visible; font-size: 12px;&quot;&gt;                &amp;lt;mxCell id=&quot;20&quot; style=&quot;edgeStyle=none;html=1;entryX=0.5;entryY=0;entryDx=0;entryDy=0;&quot; edge=&quot;1&quot; parent=&quot;1&quot; source=&quot;5&quot; target=&quot;18&quot;&amp;gt;&lt;/td&gt;&lt;/tr&gt;&lt;tr style=&quot;box-sizing: border-box ; background-color: transparent&quot;&gt;&lt;td id=&quot;L8&quot; class=&quot;blob-num js-line-number js-code-nav-line-number js-blob-rnum&quot; style=&quot;box-sizing: border-box; padding: 0px 10px; position: relative; width: 50px; min-width: 50px; font-size: 12px; line-height: 20px; text-align: right; vertical-align: top; cursor: pointer;&quot;&gt;&lt;/td&gt;&lt;td id=&quot;LC8&quot; class=&quot;blob-code blob-code-inner js-file-line&quot; style=&quot;box-sizing: border-box; padding: 0px 10px; position: relative; line-height: 20px; vertical-align: top; display: table-cell; overflow: visible; font-size: 12px;&quot;&gt;                    &amp;lt;mxGeometry relative=&quot;1&quot; as=&quot;geometry&quot;/&amp;gt;&lt;/td&gt;&lt;/tr&gt;&lt;tr style=&quot;box-sizing: border-box&quot;&gt;&lt;td id=&quot;L9&quot; class=&quot;blob-num js-line-number js-code-nav-line-number js-blob-rnum&quot; style=&quot;box-sizing: border-box; padding: 0px 10px; position: relative; width: 50px; min-width: 50px; font-size: 12px; line-height: 20px; text-align: right; vertical-align: top; cursor: pointer;&quot;&gt;&lt;/td&gt;&lt;td id=&quot;LC9&quot; class=&quot;blob-code blob-code-inner js-file-line&quot; style=&quot;box-sizing: border-box; padding: 0px 10px; position: relative; line-height: 20px; vertical-align: top; display: table-cell; overflow: visible; font-size: 12px;&quot;&gt;                &amp;lt;/mxCell&amp;gt;&lt;/td&gt;&lt;/tr&gt;&lt;tr style=&quot;box-sizing: border-box ; background-color: transparent&quot;&gt;&lt;td id=&quot;L10&quot; class=&quot;blob-num js-line-number js-code-nav-line-number js-blob-rnum&quot; style=&quot;box-sizing: border-box; padding: 0px 10px; position: relative; width: 50px; min-width: 50px; font-size: 12px; line-height: 20px; text-align: right; vertical-align: top; cursor: pointer;&quot;&gt;&lt;/td&gt;&lt;td id=&quot;LC10&quot; class=&quot;blob-code blob-code-inner js-file-line&quot; style=&quot;box-sizing: border-box; padding: 0px 10px; position: relative; line-height: 20px; vertical-align: top; display: table-cell; overflow: visible; font-size: 12px;&quot;&gt;                &amp;lt;mxCell id=&quot;21&quot; style=&quot;edgeStyle=none;html=1;entryX=0;entryY=0.5;entryDx=0;entryDy=0;&quot; edge=&quot;1&quot; parent=&quot;1&quot; source=&quot;5&quot; target=&quot;13&quot;&amp;gt;&lt;/td&gt;&lt;/tr&gt;&lt;tr style=&quot;box-sizing: border-box&quot;&gt;&lt;td id=&quot;L11&quot; class=&quot;blob-num js-line-number js-code-nav-line-number js-blob-rnum&quot; style=&quot;box-sizing: border-box; padding: 0px 10px; position: relative; width: 50px; min-width: 50px; font-size: 12px; line-height: 20px; text-align: right; vertical-align: top; cursor: pointer;&quot;&gt;&lt;/td&gt;&lt;td id=&quot;LC11&quot; class=&quot;blob-code blob-code-inner js-file-line&quot; style=&quot;box-sizing: border-box; padding: 0px 10px; position: relative; line-height: 20px; vertical-align: top; display: table-cell; overflow: visible; font-size: 12px;&quot;&gt;                    &amp;lt;mxGeometry relative=&quot;1&quot; as=&quot;geometry&quot;/&amp;gt;&lt;/td&gt;&lt;/tr&gt;&lt;tr style=&quot;box-sizing: border-box ; background-color: transparent&quot;&gt;&lt;td id=&quot;L12&quot; class=&quot;blob-num js-line-number js-code-nav-line-number js-blob-rnum&quot; style=&quot;box-sizing: border-box; padding: 0px 10px; position: relative; width: 50px; min-width: 50px; font-size: 12px; line-height: 20px; text-align: right; vertical-align: top; cursor: pointer;&quot;&gt;&lt;/td&gt;&lt;td id=&quot;LC12&quot; class=&quot;blob-code blob-code-inner js-file-line&quot; style=&quot;box-sizing: border-box; padding: 0px 10px; position: relative; line-height: 20px; vertical-align: top; display: table-cell; overflow: visible; font-size: 12px;&quot;&gt;                &amp;lt;/mxCell&amp;gt;&lt;/td&gt;&lt;/tr&gt;&lt;tr style=&quot;box-sizing: border-box&quot;&gt;&lt;td id=&quot;L13&quot; class=&quot;blob-num js-line-number js-code-nav-line-number js-blob-rnum&quot; style=&quot;box-sizing: border-box; padding: 0px 10px; position: relative; width: 50px; min-width: 50px; font-size: 12px; line-height: 20px; text-align: right; vertical-align: top; cursor: pointer;&quot;&gt;&lt;/td&gt;&lt;td id=&quot;LC13&quot; class=&quot;blob-code blob-code-inner js-file-line&quot; style=&quot;box-sizing: border-box; padding: 0px 10px; position: relative; line-height: 20px; vertical-align: top; display: table-cell; overflow: visible; font-size: 12px;&quot;&gt;                &amp;lt;mxCell id=&quot;5&quot; value=&quot;Usuario&quot; style=&quot;rounded=0;whiteSpace=wrap;html=1;&quot; parent=&quot;1&quot; vertex=&quot;1&quot;&amp;gt;&lt;/td&gt;&lt;/tr&gt;&lt;tr style=&quot;box-sizing: border-box ; background-color: transparent&quot;&gt;&lt;td id=&quot;L14&quot; class=&quot;blob-num js-line-number js-code-nav-line-number js-blob-rnum&quot; style=&quot;box-sizing: border-box; padding: 0px 10px; position: relative; width: 50px; min-width: 50px; font-size: 12px; line-height: 20px; text-align: right; vertical-align: top; cursor: pointer;&quot;&gt;&lt;/td&gt;&lt;td id=&quot;LC14&quot; class=&quot;blob-code blob-code-inner js-file-line&quot; style=&quot;box-sizing: border-box; padding: 0px 10px; position: relative; line-height: 20px; vertical-align: top; display: table-cell; overflow: visible; font-size: 12px;&quot;&gt;                    &amp;lt;mxGeometry x=&quot;100&quot; y=&quot;190&quot; width=&quot;70&quot; height=&quot;30&quot; as=&quot;geometry&quot;/&amp;gt;&lt;/td&gt;&lt;/tr&gt;&lt;tr style=&quot;box-sizing: border-box&quot;&gt;&lt;td id=&quot;L15&quot; class=&quot;blob-num js-line-number js-code-nav-line-number js-blob-rnum&quot; style=&quot;box-sizing: border-box; padding: 0px 10px; position: relative; width: 50px; min-width: 50px; font-size: 12px; line-height: 20px; text-align: right; vertical-align: top; cursor: pointer;&quot;&gt;&lt;/td&gt;&lt;td id=&quot;LC15&quot; class=&quot;blob-code blob-code-inner js-file-line&quot; style=&quot;box-sizing: border-box; padding: 0px 10px; position: relative; line-height: 20px; vertical-align: top; display: table-cell; overflow: visible; font-size: 12px;&quot;&gt;                &amp;lt;/mxCell&amp;gt;&lt;/td&gt;&lt;/tr&gt;&lt;tr style=&quot;box-sizing: border-box ; background-color: transparent&quot;&gt;&lt;td id=&quot;L16&quot; class=&quot;blob-num js-line-number js-code-nav-line-number js-blob-rnum&quot; style=&quot;box-sizing: border-box; padding: 0px 10px; position: relative; width: 50px; min-width: 50px; font-size: 12px; line-height: 20px; text-align: right; vertical-align: top; cursor: pointer;&quot;&gt;&lt;/td&gt;&lt;td id=&quot;LC16&quot; class=&quot;blob-code blob-code-inner js-file-line&quot; style=&quot;box-sizing: border-box; padding: 0px 10px; position: relative; line-height: 20px; vertical-align: top; display: table-cell; overflow: visible; font-size: 12px;&quot;&gt;                &amp;lt;mxCell id=&quot;14&quot; style=&quot;edgeStyle=none;html=1;entryX=1;entryY=0.5;entryDx=0;entryDy=0;&quot; parent=&quot;1&quot; source=&quot;9&quot; target=&quot;13&quot; edge=&quot;1&quot;&amp;gt;&lt;/td&gt;&lt;/tr&gt;&lt;tr style=&quot;box-sizing: border-box&quot;&gt;&lt;td id=&quot;L17&quot; class=&quot;blob-num js-line-number js-code-nav-line-number js-blob-rnum&quot; style=&quot;box-sizing: border-box; padding: 0px 10px; position: relative; width: 50px; min-width: 50px; font-size: 12px; line-height: 20px; text-align: right; vertical-align: top; cursor: pointer;&quot;&gt;&lt;/td&gt;&lt;td id=&quot;LC17&quot; class=&quot;blob-code blob-code-inner js-file-line&quot; style=&quot;box-sizing: border-box; padding: 0px 10px; position: relative; line-height: 20px; vertical-align: top; display: table-cell; overflow: visible; font-size: 12px;&quot;&gt;                    &amp;lt;mxGeometry relative=&quot;1&quot; as=&quot;geometry&quot;/&amp;gt;&lt;/td&gt;&lt;/tr&gt;&lt;tr style=&quot;box-sizing: border-box ; background-color: transparent&quot;&gt;&lt;td id=&quot;L18&quot; class=&quot;blob-num js-line-number js-code-nav-line-number js-blob-rnum&quot; style=&quot;box-sizing: border-box; padding: 0px 10px; position: relative; width: 50px; min-width: 50px; font-size: 12px; line-height: 20px; text-align: right; vertical-align: top; cursor: pointer;&quot;&gt;&lt;/td&gt;&lt;td id=&quot;LC18&quot; class=&quot;blob-code blob-code-inner js-file-line&quot; style=&quot;box-sizing: border-box; padding: 0px 10px; position: relative; line-height: 20px; vertical-align: top; display: table-cell; overflow: visible; font-size: 12px;&quot;&gt;                &amp;lt;/mxCell&amp;gt;&lt;/td&gt;&lt;/tr&gt;&lt;tr style=&quot;box-sizing: border-box&quot;&gt;&lt;td id=&quot;L19&quot; class=&quot;blob-num js-line-number js-code-nav-line-number js-blob-rnum&quot; style=&quot;box-sizing: border-box; padding: 0px 10px; position: relative; width: 50px; min-width: 50px; font-size: 12px; line-height: 20px; text-align: right; vertical-align: top; cursor: pointer;&quot;&gt;&lt;/td&gt;&lt;td id=&quot;LC19&quot; class=&quot;blob-code blob-code-inner js-file-line&quot; style=&quot;box-sizing: border-box; padding: 0px 10px; position: relative; line-height: 20px; vertical-align: top; display: table-cell; overflow: visible; font-size: 12px;&quot;&gt;                &amp;lt;mxCell id=&quot;9&quot; value=&quot;Endereco&quot; style=&quot;rounded=0;whiteSpace=wrap;html=1;&quot; parent=&quot;1&quot; vertex=&quot;1&quot;&amp;gt;&lt;/td&gt;&lt;/tr&gt;&lt;tr style=&quot;box-sizing: border-box ; background-color: transparent&quot;&gt;&lt;td id=&quot;L20&quot; class=&quot;blob-num js-line-number js-code-nav-line-number js-blob-rnum&quot; style=&quot;box-sizing: border-box; padding: 0px 10px; position: relative; width: 50px; min-width: 50px; font-size: 12px; line-height: 20px; text-align: right; vertical-align: top; cursor: pointer;&quot;&gt;&lt;/td&gt;&lt;td id=&quot;LC20&quot; class=&quot;blob-code blob-code-inner js-file-line&quot; style=&quot;box-sizing: border-box; padding: 0px 10px; position: relative; line-height: 20px; vertical-align: top; display: table-cell; overflow: visible; font-size: 12px;&quot;&gt;                    &amp;lt;mxGeometry x=&quot;389&quot; y=&quot;190&quot; width=&quot;70&quot; height=&quot;30&quot; as=&quot;geometry&quot;/&amp;gt;&lt;/td&gt;&lt;/tr&gt;&lt;tr style=&quot;box-sizing: border-box&quot;&gt;&lt;td id=&quot;L21&quot; class=&quot;blob-num js-line-number js-code-nav-line-number js-blob-rnum&quot; style=&quot;box-sizing: border-box; padding: 0px 10px; position: relative; width: 50px; min-width: 50px; font-size: 12px; line-height: 20px; text-align: right; vertical-align: top; cursor: pointer;&quot;&gt;&lt;/td&gt;&lt;td id=&quot;LC21&quot; class=&quot;blob-code blob-code-inner js-file-line&quot; style=&quot;box-sizing: border-box; padding: 0px 10px; position: relative; line-height: 20px; vertical-align: top; display: table-cell; overflow: visible; font-size: 12px;&quot;&gt;                &amp;lt;/mxCell&amp;gt;&lt;/td&gt;&lt;/tr&gt;&lt;tr style=&quot;box-sizing: border-box ; background-color: transparent&quot;&gt;&lt;td id=&quot;L22&quot; class=&quot;blob-num js-line-number js-code-nav-line-number js-blob-rnum&quot; style=&quot;box-sizing: border-box; padding: 0px 10px; position: relative; width: 50px; min-width: 50px; font-size: 12px; line-height: 20px; text-align: right; vertical-align: top; cursor: pointer;&quot;&gt;&lt;/td&gt;&lt;td id=&quot;LC22&quot; class=&quot;blob-code blob-code-inner js-file-line&quot; style=&quot;box-sizing: border-box; padding: 0px 10px; position: relative; line-height: 20px; vertical-align: top; display: table-cell; overflow: visible; font-size: 12px;&quot;&gt;                &amp;lt;mxCell id=&quot;13&quot; value=&quot;ListaEndereco&quot; style=&quot;rounded=0;whiteSpace=wrap;html=1;&quot; parent=&quot;1&quot; vertex=&quot;1&quot;&amp;gt;&lt;/td&gt;&lt;/tr&gt;&lt;tr style=&quot;box-sizing: border-box&quot;&gt;&lt;td id=&quot;L23&quot; class=&quot;blob-num js-line-number js-code-nav-line-number js-blob-rnum&quot; style=&quot;box-sizing: border-box; padding: 0px 10px; position: relative; width: 50px; min-width: 50px; font-size: 12px; line-height: 20px; text-align: right; vertical-align: top; cursor: pointer;&quot;&gt;&lt;/td&gt;&lt;td id=&quot;LC23&quot; class=&quot;blob-code blob-code-inner js-file-line&quot; style=&quot;box-sizing: border-box; padding: 0px 10px; position: relative; line-height: 20px; vertical-align: top; display: table-cell; overflow: visible; font-size: 12px;&quot;&gt;                    &amp;lt;mxGeometry x=&quot;240&quot; y=&quot;190&quot; width=&quot;100&quot; height=&quot;30&quot; as=&quot;geometry&quot;/&amp;gt;&lt;/td&gt;&lt;/tr&gt;&lt;tr style=&quot;box-sizing: border-box ; background-color: transparent&quot;&gt;&lt;td id=&quot;L24&quot; class=&quot;blob-num js-line-number js-code-nav-line-number js-blob-rnum&quot; style=&quot;box-sizing: border-box; padding: 0px 10px; position: relative; width: 50px; min-width: 50px; font-size: 12px; line-height: 20px; text-align: right; vertical-align: top; cursor: pointer;&quot;&gt;&lt;/td&gt;&lt;td id=&quot;LC24&quot; class=&quot;blob-code blob-code-inner js-file-line&quot; style=&quot;box-sizing: border-box; padding: 0px 10px; position: relative; line-height: 20px; vertical-align: top; display: table-cell; overflow: visible; font-size: 12px;&quot;&gt;                &amp;lt;/mxCell&amp;gt;&lt;/td&gt;&lt;/tr&gt;&lt;tr style=&quot;box-sizing: border-box&quot;&gt;&lt;td id=&quot;L25&quot; class=&quot;blob-num js-line-number js-code-nav-line-number js-blob-rnum&quot; style=&quot;box-sizing: border-box; padding: 0px 10px; position: relative; width: 50px; min-width: 50px; font-size: 12px; line-height: 20px; text-align: right; vertical-align: top; cursor: pointer;&quot;&gt;&lt;/td&gt;&lt;td id=&quot;LC25&quot; class=&quot;blob-code blob-code-inner js-file-line&quot; style=&quot;box-sizing: border-box; padding: 0px 10px; position: relative; line-height: 20px; vertical-align: top; display: table-cell; overflow: visible; font-size: 12px;&quot;&gt;                &amp;lt;mxCell id=&quot;19&quot; style=&quot;edgeStyle=none;html=1;entryX=1;entryY=0.5;entryDx=0;entryDy=0;&quot; edge=&quot;1&quot; parent=&quot;1&quot; source=&quot;17&quot; target=&quot;18&quot;&amp;gt;&lt;/td&gt;&lt;/tr&gt;&lt;tr style=&quot;box-sizing: border-box ; background-color: transparent&quot;&gt;&lt;td id=&quot;L26&quot; class=&quot;blob-num js-line-number js-code-nav-line-number js-blob-rnum&quot; style=&quot;box-sizing: border-box; padding: 0px 10px; position: relative; width: 50px; min-width: 50px; font-size: 12px; line-height: 20px; text-align: right; vertical-align: top; cursor: pointer;&quot;&gt;&lt;/td&gt;&lt;td id=&quot;LC26&quot; class=&quot;blob-code blob-code-inner js-file-line&quot; style=&quot;box-sizing: border-box; padding: 0px 10px; position: relative; line-height: 20px; vertical-align: top; display: table-cell; overflow: visible; font-size: 12px;&quot;&gt;                    &amp;lt;mxGeometry relative=&quot;1&quot; as=&quot;geometry&quot;/&amp;gt;&lt;/td&gt;&lt;/tr&gt;&lt;tr style=&quot;box-sizing: border-box&quot;&gt;&lt;td id=&quot;L27&quot; class=&quot;blob-num js-line-number js-code-nav-line-number js-blob-rnum&quot; style=&quot;box-sizing: border-box; padding: 0px 10px; position: relative; width: 50px; min-width: 50px; font-size: 12px; line-height: 20px; text-align: right; vertical-align: top; cursor: pointer;&quot;&gt;&lt;/td&gt;&lt;td id=&quot;LC27&quot; class=&quot;blob-code blob-code-inner js-file-line&quot; style=&quot;box-sizing: border-box; padding: 0px 10px; position: relative; line-height: 20px; vertical-align: top; display: table-cell; overflow: visible; font-size: 12px;&quot;&gt;                &amp;lt;/mxCell&amp;gt;&lt;/td&gt;&lt;/tr&gt;&lt;tr style=&quot;box-sizing: border-box ; background-color: transparent&quot;&gt;&lt;td id=&quot;L28&quot; class=&quot;blob-num js-line-number js-code-nav-line-number js-blob-rnum&quot; style=&quot;box-sizing: border-box; padding: 0px 10px; position: relative; width: 50px; min-width: 50px; font-size: 12px; line-height: 20px; text-align: right; vertical-align: top; cursor: pointer;&quot;&gt;&lt;/td&gt;&lt;td id=&quot;LC28&quot; class=&quot;blob-code blob-code-inner js-file-line&quot; style=&quot;box-sizing: border-box; padding: 0px 10px; position: relative; line-height: 20px; vertical-align: top; display: table-cell; overflow: visible; font-size: 12px;&quot;&gt;                &amp;lt;mxCell id=&quot;17&quot; value=&quot;Produto&quot; style=&quot;rounded=0;whiteSpace=wrap;html=1;&quot; vertex=&quot;1&quot; parent=&quot;1&quot;&amp;gt;&lt;/td&gt;&lt;/tr&gt;&lt;tr style=&quot;box-sizing: border-box&quot;&gt;&lt;td id=&quot;L29&quot; class=&quot;blob-num js-line-number js-code-nav-line-number js-blob-rnum&quot; style=&quot;box-sizing: border-box; padding: 0px 10px; position: relative; width: 50px; min-width: 50px; font-size: 12px; line-height: 20px; text-align: right; vertical-align: top; cursor: pointer;&quot;&gt;&lt;/td&gt;&lt;td id=&quot;LC29&quot; class=&quot;blob-code blob-code-inner js-file-line&quot; style=&quot;box-sizing: border-box; padding: 0px 10px; position: relative; line-height: 20px; vertical-align: top; display: table-cell; overflow: visible; font-size: 12px;&quot;&gt;                    &amp;lt;mxGeometry x=&quot;389&quot; y=&quot;340&quot; width=&quot;70&quot; height=&quot;30&quot; as=&quot;geometry&quot;/&amp;gt;&lt;/td&gt;&lt;/tr&gt;&lt;tr style=&quot;box-sizing: border-box ; background-color: transparent&quot;&gt;&lt;td id=&quot;L30&quot; class=&quot;blob-num js-line-number js-code-nav-line-number js-blob-rnum&quot; style=&quot;box-sizing: border-box; padding: 0px 10px; position: relative; width: 50px; min-width: 50px; font-size: 12px; line-height: 20px; text-align: right; vertical-align: top; cursor: pointer;&quot;&gt;&lt;/td&gt;&lt;td id=&quot;LC30&quot; class=&quot;blob-code blob-code-inner js-file-line&quot; style=&quot;box-sizing: border-box; padding: 0px 10px; position: relative; line-height: 20px; vertical-align: top; display: table-cell; overflow: visible; font-size: 12px;&quot;&gt;                &amp;lt;/mxCell&amp;gt;&lt;/td&gt;&lt;/tr&gt;&lt;tr style=&quot;box-sizing: border-box&quot;&gt;&lt;td id=&quot;L31&quot; class=&quot;blob-num js-line-number js-code-nav-line-number js-blob-rnum&quot; style=&quot;box-sizing: border-box; padding: 0px 10px; position: relative; width: 50px; min-width: 50px; font-size: 12px; line-height: 20px; text-align: right; vertical-align: top; cursor: pointer;&quot;&gt;&lt;/td&gt;&lt;td id=&quot;LC31&quot; class=&quot;blob-code blob-code-inner js-file-line&quot; style=&quot;box-sizing: border-box; padding: 0px 10px; position: relative; line-height: 20px; vertical-align: top; display: table-cell; overflow: visible; font-size: 12px;&quot;&gt;                &amp;lt;mxCell id=&quot;18&quot; value=&quot;Pedido&quot; style=&quot;rounded=0;whiteSpace=wrap;html=1;&quot; vertex=&quot;1&quot; parent=&quot;1&quot;&amp;gt;&lt;/td&gt;&lt;/tr&gt;&lt;tr style=&quot;box-sizing: border-box ; background-color: transparent&quot;&gt;&lt;td id=&quot;L32&quot; class=&quot;blob-num js-line-number js-code-nav-line-number js-blob-rnum&quot; style=&quot;box-sizing: border-box; padding: 0px 10px; position: relative; width: 50px; min-width: 50px; font-size: 12px; line-height: 20px; text-align: right; vertical-align: top; cursor: pointer;&quot;&gt;&lt;/td&gt;&lt;td id=&quot;LC32&quot; class=&quot;blob-code blob-code-inner js-file-line&quot; style=&quot;box-sizing: border-box; padding: 0px 10px; position: relative; line-height: 20px; vertical-align: top; display: table-cell; overflow: visible; font-size: 12px;&quot;&gt;                    &amp;lt;mxGeometry x=&quot;100&quot; y=&quot;340&quot; width=&quot;70&quot; height=&quot;30&quot; as=&quot;geometry&quot;/&amp;gt;&lt;/td&gt;&lt;/tr&gt;&lt;tr style=&quot;box-sizing: border-box&quot;&gt;&lt;td id=&quot;L33&quot; class=&quot;blob-num js-line-number js-code-nav-line-number js-blob-rnum&quot; style=&quot;box-sizing: border-box; padding: 0px 10px; position: relative; width: 50px; min-width: 50px; font-size: 12px; line-height: 20px; text-align: right; vertical-align: top; cursor: pointer;&quot;&gt;&lt;/td&gt;&lt;td id=&quot;LC33&quot; class=&quot;blob-code blob-code-inner js-file-line&quot; style=&quot;box-sizing: border-box; padding: 0px 10px; position: relative; line-height: 20px; vertical-align: top; display: table-cell; overflow: visible; font-size: 12px;&quot;&gt;                &amp;lt;/mxCell&amp;gt;&lt;/td&gt;&lt;/tr&gt;&lt;tr style=&quot;box-sizing: border-box ; background-color: transparent&quot;&gt;&lt;td id=&quot;L34&quot; class=&quot;blob-num js-line-number js-code-nav-line-number js-blob-rnum&quot; style=&quot;box-sizing: border-box; padding: 0px 10px; position: relative; width: 50px; min-width: 50px; font-size: 12px; line-height: 20px; text-align: right; vertical-align: top; cursor: pointer;&quot;&gt;&lt;/td&gt;&lt;td id=&quot;LC34&quot; class=&quot;blob-code blob-code-inner js-file-line&quot; style=&quot;box-sizing: border-box; padding: 0px 10px; position: relative; line-height: 20px; vertical-align: top; display: table-cell; overflow: visible; font-size: 12px;&quot;&gt;            &amp;lt;/root&amp;gt;&lt;/td&gt;&lt;/tr&gt;&lt;tr style=&quot;box-sizing: border-box&quot;&gt;&lt;td id=&quot;L35&quot; class=&quot;blob-num js-line-number js-code-nav-line-number js-blob-rnum&quot; style=&quot;box-sizing: border-box; padding: 0px 10px; position: relative; width: 50px; min-width: 50px; font-size: 12px; line-height: 20px; text-align: right; vertical-align: top; cursor: pointer;&quot;&gt;&lt;/td&gt;&lt;td id=&quot;LC35&quot; class=&quot;blob-code blob-code-inner js-file-line&quot; style=&quot;box-sizing: border-box; padding: 0px 10px; position: relative; line-height: 20px; vertical-align: top; display: table-cell; overflow: visible; font-size: 12px;&quot;&gt;        &amp;lt;/mxGraphModel&amp;gt;&lt;/td&gt;&lt;/tr&gt;&lt;tr style=&quot;box-sizing: border-box ; background-color: transparent&quot;&gt;&lt;td id=&quot;L36&quot; class=&quot;blob-num js-line-number js-code-nav-line-number js-blob-rnum&quot; style=&quot;box-sizing: border-box; padding: 0px 10px; position: relative; width: 50px; min-width: 50px; font-size: 12px; line-height: 20px; text-align: right; vertical-align: top; cursor: pointer;&quot;&gt;&lt;/td&gt;&lt;td id=&quot;LC36&quot; class=&quot;blob-code blob-code-inner js-file-line&quot; style=&quot;box-sizing: border-box; padding: 0px 10px; position: relative; line-height: 20px; vertical-align: top; display: table-cell; overflow: visible; font-size: 12px;&quot;&gt;    &amp;lt;/diagram&amp;gt;&lt;/td&gt;&lt;/tr&gt;&lt;tr style=&quot;box-sizing: border-box&quot;&gt;&lt;td id=&quot;L37&quot; class=&quot;blob-num js-line-number js-code-nav-line-number js-blob-rnum&quot; style=&quot;box-sizing: border-box; padding: 0px 10px; position: relative; width: 50px; min-width: 50px; font-size: 12px; line-height: 20px; text-align: right; vertical-align: top; cursor: pointer;&quot;&gt;&lt;/td&gt;&lt;td id=&quot;LC37&quot; class=&quot;blob-code blob-code-inner js-file-line&quot; style=&quot;box-sizing: border-box; padding: 0px 10px; position: relative; line-height: 20px; vertical-align: top; display: table-cell; overflow: visible; font-size: 12px;&quot;&gt;&amp;lt;/mxfile&amp;gt;&lt;/td&gt;&lt;/tr&gt;&lt;/tbody&gt;&lt;/table&gt;" style="text;whiteSpace=wrap;html=1;" vertex="1" parent="1">
                    <mxGeometry x="230" y="120" width="550" height="1080" as="geometry"/>
                </mxCell>
            </root>
        </mxGraphModel>
    </diagram>
</mxfile>